<?xml version="1.0" encoding="UTF-8"?>
<svg id="Layer_1" xmlns="http://www.w3.org/2000/svg" version="1.1" viewBox="0 0 2000 2000">
  <!-- Generator: Adobe Illustrator 30.3.0, SVG Export Plug-In . SVG Version: 2.1.3 Build 182)  -->
  <defs>
    <style>
      .st0 {
        fill: #fff;
      }
    </style>
  </defs>
  <path d="M0,2000V0h2000v2000H0ZM1119.3,757.63l20.96-52.4c5.34-17.72,6.46-35.65,4.94-54.33l-10.24-125.7-5.09-62.1-5.05-60.72-5.42-63.44-12.2-143.86-4.43-60.74c-.84-11.56-3.04-22.71-7.53-33.5-16.49-39.62-55.39-63.77-98.27-63.1-24.65.39-47.06,9.35-65.57,25.68-19.07,16.82-32,39.83-34.22,65.54l-.83,24.72-1.01,123.71-.96,170.99-1,179.98-1.2,171.77-.1,100.17c18.43-12.16,34.64-22.22,53.86-29.29,17.89-5.99,36.08-8.33,55.08-7.9,22.7-.86,43.75,3.64,65.51,13l21-45.71,31.78-72.78ZM1087.87,1038.94c0-48.39-39.23-87.62-87.62-87.62s-87.62,39.23-87.62,87.62,39.23,87.62,87.62,87.62,87.62-39.23,87.62-87.62ZM1753.34,1597.2c22.36,11.26,57.83,10.93,80.66-.11,10.74-5.2,20.7-11.17,29.75-19.56,19.22-17.8,31.52-42.86,33.14-69.41,2.47-40.33-17.52-77.48-50.56-99.39l-34.27-20.97-91.61-54.12-39.44-22.83-95.24-55.59-68.68-39.42-70.69-41.32-152.45-88.45-97.41-56.49-23.75-14.36,1.38,22.91.2,14.15c-1.17,12.38-2.58,24.03-6.17,36.28-9.31,31.82-27.42,60.29-51.51,82.99-1.22,1.15-5.15,3.58-4.45,5.45l14.94,21.94,52.37,75.41,19.38,27.73c8.41,12.04,17.69,22.57,29.31,31.8,18.13,14.42,37.68,25.3,58.7,35.45l117.94,56.98,139.83,68.16,76.39,37.54,90.69,44.32,41.55,20.93ZM179.35,1601.99c8.09,2.59,15.03,2.98,22.74,3.36,19.28.95,37.66-2.66,54.94-12.6l187.67-108.03,219.51-125.37,115.52-66.53,119.57-70.36,35.54-20.26c-23.17-11.08-43.85-23.34-60.71-41.14-11.47-12.12-20.86-24.72-29.1-39.06-8.95-18-15.59-36.1-18.75-56.08-.59-1-2.99-2.54-4.34-2.41l-124.29,11.84c-27.89,2.66-50.13,3.26-76.74,17.51-19.17,10.27-36.45,22.24-54.29,34.57l-33.78,23.35-64.08,43.96-76.59,52.47-191.49,131.22-49.46,32.74c-50.22,33.24-63.91,101.44-28.73,150.35,13.91,19.34,34.1,33.16,56.87,40.46Z"/>
  <path class="st0" d="M179.35,1601.99c-22.77-7.29-42.96-21.11-56.87-40.46-35.18-48.91-21.49-117.12,28.73-150.35l49.46-32.74,191.49-131.22,76.59-52.47,64.08-43.96,33.78-23.35c17.84-12.33,35.12-24.3,54.29-34.57,26.6-14.25,48.85-14.85,76.74-17.51l124.29-11.84c1.35-.13,3.76,1.4,4.34,2.41,3.16,19.98,9.8,38.08,18.75,56.08,8.25,14.35,17.63,26.94,29.1,39.06,16.85,17.81,37.54,30.06,60.71,41.14l-35.54,20.26-119.57,70.36-115.52,66.53-219.51,125.37-187.67,108.03c-17.28,9.95-35.65,13.56-54.94,12.6-7.71-.38-14.65-.76-22.74-3.36Z"/>
  <path class="st0" d="M1753.34,1597.2l-41.55-20.93-90.69-44.32-76.39-37.54-139.83-68.16-117.94-56.98c-21.02-10.15-40.56-21.04-58.7-35.45-11.62-9.23-20.89-19.77-29.31-31.8l-19.38-27.73-52.37-75.41-14.94-21.94c-.7-1.87,3.23-4.3,4.45-5.45,24.08-22.7,42.2-51.16,51.51-82.99,3.58-12.26,5-23.9,6.17-36.28l-.2-14.15-1.38-22.91,23.75,14.36,97.41,56.49,152.45,88.45,70.69,41.32,68.68,39.42,95.24,55.59,39.44,22.83,91.61,54.12,34.27,20.97c33.04,21.92,53.03,59.06,50.56,99.39-1.63,26.55-13.92,51.61-33.14,69.41-9.05,8.38-19.01,14.36-29.75,19.56-22.84,11.05-58.31,11.38-80.66.11Z"/>
  <path class="st0" d="M1119.3,757.63l-31.78,72.78-21,45.71c-21.76-9.37-42.8-13.86-65.51-13-19-.43-37.19,1.9-55.08,7.9-19.22,7.07-35.43,17.14-53.86,29.29l.1-100.17,1.2-171.77,1-179.98.96-170.99,1.01-123.71.83-24.72c2.22-25.7,15.15-48.72,34.22-65.54,18.52-16.33,40.93-25.29,65.57-25.68,42.89-.68,81.78,23.48,98.27,63.1,4.49,10.79,6.69,21.94,7.53,33.5l4.43,60.74,12.2,143.86,5.42,63.44,5.05,60.72,5.09,62.1,10.24,125.7c1.52,18.68.4,36.61-4.94,54.33l-20.96,52.4Z"/>
  <circle class="st0" cx="1000.25" cy="1038.94" r="87.62"/>
</svg>