<?xml version="1.0" encoding="UTF-8"?>
<svg xmlns="http://www.w3.org/2000/svg" version="1.1" viewBox="0 0 2000 2000">
  <path fill="currentColor" d="M179.35,1601.99c-22.77-7.29-42.96-21.11-56.87-40.46-35.18-48.91-21.49-117.12,28.73-150.35l49.46-32.74,191.49-131.22,76.59-52.47,64.08-43.96,33.78-23.35c17.84-12.33,35.12-24.3,54.29-34.57,26.6-14.25,48.85-14.85,76.74-17.51l124.29-11.84c1.35-.13,3.76,1.4,4.34,2.41,3.16,19.98,9.8,38.08,18.75,56.08,8.25,14.35,17.63,26.94,29.1,39.06,16.85,17.81,37.54,30.06,60.71,41.14l-35.54,20.26-119.57,70.36-115.52,66.53-219.51,125.37-187.67,108.03c-17.28,9.95-35.65,13.56-54.94,12.6-7.71-.38-14.65-.76-22.74-3.36Z"/>
  <path fill="currentColor" d="M1753.34,1597.2l-41.55-20.93-90.69-44.32-76.39-37.54-139.83-68.16-117.94-56.98c-21.02-10.15-40.56-21.04-58.7-35.45-11.62-9.23-20.89-19.77-29.31-31.8l-19.38-27.73-52.37-75.41-14.94-21.94c-.7-1.87,3.23-4.3,4.45-5.45,24.08-22.7,42.2-51.16,51.51-82.99,3.58-12.26,5-23.9,6.17-36.28l-.2-14.15-1.38-22.91,23.75,14.36,97.41,56.49,152.45,88.45,70.69,41.32,68.68,39.42,95.24,55.59,39.44,22.83,91.61,54.12,34.27,20.97c33.04,21.92,53.03,59.06,50.56,99.39-1.63,26.55-13.92,51.61-33.14,69.41-9.05,8.38-19.01,14.36-29.75,19.56-22.84,11.05-58.31,11.38-80.66.11Z"/>
  <path fill="currentColor" d="M1119.3,757.63l-31.78,72.78-21,45.71c-21.76-9.37-42.8-13.86-65.51-13-19-.43-37.19,1.9-55.08,7.9-19.22,7.07-35.43,17.14-53.86,29.29l.1-100.17,1.2-171.77,1-179.98.96-170.99,1.01-123.71.83-24.72c2.22-25.7,15.15-48.72,34.22-65.54,18.52-16.33,40.93-25.29,65.57-25.68,42.89-.68,81.78,23.48,98.27,63.1,4.49,10.79,6.69,21.94,7.53,33.5l4.43,60.74,12.2,143.86,5.42,63.44,5.05,60.72,5.09,62.1,10.24,125.7c1.52,18.68.4,36.61-4.94,54.33l-20.96,52.4Z"/>
  <circle fill="currentColor" cx="1000.25" cy="1038.94" r="87.62"/>
</svg>
